<svg width="393" height="139" viewBox="0 0 393 139" fill="none" xmlns="http://www.w3.org/2000/svg">
<path d="M21.3339 64.0641V74.5974C21.3339 74.6641 21.3339 74.6641 21.4005 74.6641H32.0005V127.931C32.0005 127.997 32.0005 127.997 32.0672 127.997H53.3339V138.664H21.3339V74.7307C21.3339 74.6641 21.3339 74.6641 21.2672 74.6641H0.000520945V63.9974H21.2672C21.3339 63.9974 21.3339 63.9974 21.3339 63.9307V-0.00260925H53.3339V10.6641H32.0672C32.0005 10.6641 32.0005 10.6641 32.0005 10.7307V63.9974H21.4005C21.3339 63.9974 21.3339 63.9974 21.3339 64.0641ZM160.879 -0.00260925H171.546V31.9974H160.879V21.3974C160.879 21.3307 160.879 21.3307 160.812 21.3307H150.212V10.7307C150.212 10.6641 150.212 10.6641 150.146 10.6641H118.279C118.212 10.6641 118.212 10.6641 118.212 10.7307V42.5974C118.212 42.6641 118.212 42.6641 118.279 42.6641H139.546V53.2641C139.546 53.3307 139.546 53.3307 139.612 53.3307H160.879V63.9307C160.879 63.9974 160.879 63.9974 160.946 63.9974H171.546V95.9974H160.946C160.879 95.9974 160.879 95.9974 160.879 96.0641V106.664H128.879V96.0641C128.879 95.9974 128.879 95.9974 128.812 95.9974H118.279C118.212 95.9974 118.212 95.9974 118.212 96.0641V106.664H107.546V74.6641H118.212V85.2641C118.212 85.3307 118.212 85.3307 118.279 85.3307H128.879V95.9307C128.879 95.9974 128.879 95.9974 128.946 95.9974H160.812C160.879 95.9974 160.879 95.9974 160.879 95.9307V64.0641C160.879 63.9974 160.879 63.9974 160.812 63.9974H139.546V53.3974C139.546 53.3307 139.546 53.3307 139.479 53.3307H118.212V42.7307C118.212 42.6641 118.212 42.6641 118.146 42.6641H107.546V10.6641H118.146C118.212 10.6641 118.212 10.6641 118.212 10.5974V-0.00260925H150.212V10.5974C150.212 10.6641 150.212 10.6641 150.279 10.6641H160.812C160.879 10.6641 160.879 10.6641 160.879 10.5974V-0.00260925ZM285.532 95.9974H296.132V106.664H264.132V95.9974H274.732C274.799 95.9974 274.799 95.9974 274.799 95.9307V42.7307C274.799 42.6641 274.799 42.6641 274.732 42.6641H253.532C253.466 42.6641 253.466 42.6641 253.466 42.7307V53.3307H242.866C242.799 53.3307 242.799 53.3307 242.799 53.3974V95.9307C242.799 95.9974 242.799 95.9974 242.866 95.9974H253.466V106.664H221.466V95.9974H232.066C232.132 95.9974 232.132 95.9974 232.132 95.9307V53.3974C232.132 53.3307 232.132 53.3307 232.066 53.3307H221.466V42.6641H232.066C232.132 42.6641 232.132 42.6641 232.132 42.5974V31.9974H242.799V42.5974C242.799 42.6641 242.799 42.6641 242.866 42.6641H253.399C253.466 42.6641 253.466 42.6641 253.466 42.5974V31.9974H274.799V42.5974C274.799 42.6641 274.799 42.6641 274.866 42.6641H285.466V95.9307C285.466 95.9974 285.466 95.9974 285.532 95.9974ZM392.969 63.9974V74.6641H371.702C371.636 74.6641 371.636 74.6641 371.636 74.7307V138.664H339.636V127.997H360.902C360.969 127.997 360.969 127.997 360.969 127.931V74.6641H371.569C371.636 74.6641 371.636 74.6641 371.636 74.5974V64.0641C371.636 63.9974 371.636 63.9974 371.569 63.9974H360.969V10.7307C360.969 10.6641 360.969 10.6641 360.902 10.6641H339.636V-0.00260925H371.636V63.9307C371.636 63.9974 371.636 63.9974 371.702 63.9974H392.969Z" fill="black"/>
</svg>
