<svg viewBox="0 0 229 227" fill="none" xmlns="http://www.w3.org/2000/svg"><path d="M120.988 171.403C112.933 168.957 105.034 166.086 97.3291 162.802C69.3755 150.896 45.723 134.626 30.7078 116.987C17.036 100.929 12.3096 85.3491 17.739 74.2615C22.3515 64.8407 33.5534 58.8961 48.726 56.5037C50.2784 51.2437 52.0673 46.2387 54.0169 41.5148C29.8564 43.7153 11.4934 52.7964 3.85255 68.3535C-4.1455 84.7544 1.12907 105.2 18.7523 125.907C35.217 145.266 60.8713 163.001 90.9627 175.798C93.2043 176.757 95.4444 177.668 97.6826 178.508C85.0076 181.707 71.9261 183.244 58.8131 183.076C48.0809 182.817 36.3364 181.111 27.6758 174.741C24.6769 172.55 22.2041 169.794 20.4168 166.65C16.6876 160.019 22.1458 140.74 25.7118 131.206C22.308 127.9 19.1318 124.539 16.2336 121.122C15.6543 120.449 15.0743 119.751 14.5458 119.076C6.31339 135.293 0.0265328 161.097 6.92123 173.352C18.6109 194.129 46.9058 198.284 69.6377 197.09C87.3599 195.957 104.818 192.393 121.452 186.511C129.409 183.8 137.202 180.68 144.794 177.166C136.733 175.727 128.781 173.802 120.988 171.403Z" fill="#EEF2F9"/><path d="M58.5398 95.2629C64.6496 89.7433 71.09 84.5511 77.83 79.7112C102.276 62.1478 128.839 50.1692 152.638 45.9662C174.306 42.1383 191.312 45.4806 199.279 55.1263C206.048 63.3214 206.42 75.3452 201.553 88.9978C205.814 92.7281 209.722 96.5351 213.287 100.344C222.563 79.3526 222.584 59.9512 211.417 46.3984C199.617 32.1577 177.736 27.0046 149.799 31.9358C123.685 36.5364 94.7897 49.4873 68.4933 68.4031C66.529 69.8095 64.6105 71.2369 62.7606 72.6958C65.6876 60.7322 70.3821 49.2056 76.7097 38.4464C82.004 29.6973 89.1462 20.7843 99.2649 16.5905C102.754 15.1312 106.532 14.3698 110.356 14.3553C118.402 14.3584 134.128 27.8392 141.496 35.2218C146.235 33.9471 150.918 32.8857 155.523 32.08C156.435 31.9147 157.37 31.7599 158.259 31.6373C146.743 17.2884 125.216 0.0869793 110.345 0.0838016C85.1323 0.0784149 67.8803 21.5298 58.321 40.8726C51.0595 56.0462 46.2297 72.133 43.9867 88.6169C42.8164 96.4544 42.1109 104.346 41.8734 112.256C47.0309 106.263 52.598 100.587 58.5398 95.2629Z" fill="#6FB8C6"/><path d="M163.344 79.1187C165.113 86.8574 166.41 94.6908 167.228 102.581C170.202 131.205 166.983 158.631 158.172 179.825C150.151 199.122 138.094 210.983 125.111 212.359C114.08 213.528 102.968 207.604 93.1558 196.65C87.5088 198.125 81.9796 199.278 76.6302 200.157C90.7649 218.431 108.367 228.487 126.595 226.575C145.783 224.513 162.07 209.693 172.416 184.816C182.094 161.566 185.667 131.773 182.447 100.971C182.212 98.6734 181.934 96.4016 181.591 94.1685C190.899 102.698 198.872 112.413 205.283 123.037C210.416 131.795 214.718 142.115 213.157 152.371C212.631 155.914 211.317 159.328 209.302 162.391C205.03 168.819 184.449 174.412 173.837 176.48C172.481 180.927 170.96 185.218 169.248 189.315C168.914 190.13 168.559 190.957 168.198 191.731C187.334 189.953 214.371 181.649 222.263 169.767C235.645 149.621 225.324 124.734 212.836 107.086C202.914 93.4322 190.873 81.2489 177.098 70.9273C170.604 65.9367 163.814 61.2896 156.759 57.0069C159.464 64.2295 161.663 71.6154 163.344 79.1187Z" fill="#EEF2F9"/></svg>
